<svg width="46" height="46" viewBox="0 0 46 46" fill="none" xmlns="http://www.w3.org/2000/svg">
<path d="M6.242 10.337C3.575 13.865 2 18.254 2 23C2 34.592 11.408 44 23 44C34.592 44 44 34.592 44 23C44 11.408 34.592 2 23 2" stroke="#292D32" stroke-width="3" stroke-linecap="round" stroke-linejoin="round"/>
<path d="M8.2998 23.0008C8.2998 31.1278 14.8728 37.7008 22.9998 37.7008C31.1268 37.7008 37.6998 31.1278 37.6998 23.0008C37.6998 14.8738 31.1268 8.30078 22.9998 8.30078" stroke="#292D32" stroke-width="3" stroke-linecap="round" stroke-linejoin="round"/>
<path d="M23 31.3996C27.641 31.3996 31.4 27.6406 31.4 22.9996C31.4 18.3586 27.641 14.5996 23 14.5996" stroke="#292D32" stroke-width="3" stroke-linecap="round" stroke-linejoin="round"/>
</svg>
