<svg width="48" height="48" viewBox="0 0 48 48" fill="none" xmlns="http://www.w3.org/2000/svg">
<path d="M36.413 37.3284H11.587C2.7014 37.3284 0 34.627 0 25.7414V11.587C0 2.7014 2.7014 0 11.587 0H36.3907C45.2763 0 47.9777 2.7014 47.9777 11.587V25.7191C48 34.627 45.2986 37.3284 36.413 37.3284ZM11.587 3.34884C4.57674 3.34884 3.34884 4.57674 3.34884 11.587V25.7191C3.34884 32.7293 4.57674 33.9572 11.587 33.9572H36.3907C43.4009 33.9572 44.6288 32.7293 44.6288 25.7191V11.587C44.6288 4.57674 43.4009 3.34884 36.3907 3.34884H11.587Z" fill="#292D32"/>
<path d="M23.9996 48.0009C23.0843 48.0009 22.3252 47.2419 22.3252 46.3265V35.6549C22.3252 34.7395 23.0843 33.9805 23.9996 33.9805C24.915 33.9805 25.674 34.7395 25.674 35.6549V46.3265C25.674 47.2419 24.915 48.0009 23.9996 48.0009Z" fill="#292D32"/>
<path d="M46.3256 27.9074H1.67442C0.75907 27.9074 0 27.1484 0 26.233C0 25.3177 0.75907 24.5586 1.67442 24.5586H46.3256C47.2409 24.5586 48 25.3177 48 26.233C48 27.1484 47.2409 27.9074 46.3256 27.9074Z" fill="#292D32"/>
<path d="M34.0467 47.9992H13.9537C13.0384 47.9992 12.2793 47.2402 12.2793 46.3248C12.2793 45.4095 13.0384 44.6504 13.9537 44.6504H34.0467C34.9621 44.6504 35.7212 45.4095 35.7212 46.3248C35.7212 47.2402 34.9621 47.9992 34.0467 47.9992Z" fill="#292D32"/>
</svg>
