<svg width="52" height="49" viewBox="0 0 52 49" fill="none" xmlns="http://www.w3.org/2000/svg">
<path d="M50.2055 35.9308V6.83885C50.2055 3.94652 47.8435 1.80137 44.9752 2.0424H44.8306C39.769 2.47625 32.0803 5.05525 27.79 7.75476L27.3802 8.01989C26.6812 8.45374 25.5243 8.45374 24.8253 8.01989L24.2228 7.65835C19.9325 4.98294 12.2678 2.42804 7.2062 2.0183C4.33797 1.77727 2 3.94652 2 6.81475V35.9308C2 38.2447 3.88002 40.4139 6.19388 40.7031L6.89286 40.7996C12.1232 41.4985 20.1976 44.1498 24.8253 46.6806L24.9217 46.7288C25.5725 47.0904 26.6089 47.0904 27.2356 46.7288C31.8633 44.1739 39.9619 41.4985 45.2163 40.7996L46.0117 40.7031C48.3255 40.4139 50.2055 38.2447 50.2055 35.9308Z" stroke="#292D32" stroke-width="3" stroke-linecap="round" stroke-linejoin="round"/>
<path d="M26.1025 8.81543V44.9696" stroke="#292D32" stroke-width="3" stroke-linecap="round" stroke-linejoin="round"/>
<path d="M15.8592 16.0462H10.436" stroke="#292D32" stroke-width="3" stroke-linecap="round" stroke-linejoin="round"/>
<path d="M17.6669 23.2771H10.436" stroke="#292D32" stroke-width="3" stroke-linecap="round" stroke-linejoin="round"/>
</svg>
