<svg width="51" height="53" viewBox="0 0 51 53" fill="none" xmlns="http://www.w3.org/2000/svg">
<path opacity="0.4" d="M39.6705 14.7343C39.4917 14.7088 39.3129 14.7088 39.1342 14.7343C35.1761 14.6067 32.0352 11.3636 32.0352 7.37994C32.0352 3.31969 35.3293 0 39.4151 0C43.4753 0 46.795 3.29416 46.795 7.37994C46.7695 11.3636 43.6286 14.6067 39.6705 14.7343Z" fill="#292D32"/>
<path opacity="0.4" d="M47.9965 32.4306C45.1365 34.3458 41.1273 35.0608 37.4246 34.5756C38.3949 32.4817 38.9056 30.1579 38.9312 27.7064C38.9312 25.1528 38.3694 22.7269 37.2969 20.6074C41.0762 20.0967 45.0854 20.8117 47.971 22.7269C52.0057 25.3826 52.0057 29.7493 47.9965 32.4306Z" fill="#292D32"/>
<path opacity="0.4" d="M11.3541 14.7343C11.5328 14.7088 11.7116 14.7088 11.8903 14.7343C15.8484 14.6067 18.9894 11.3636 18.9894 7.37994C18.9894 3.31969 15.6952 0 11.6094 0C7.54919 0 4.22949 3.29416 4.22949 7.37994C4.25503 11.3636 7.39597 14.6067 11.3541 14.7343Z" fill="#292D32"/>
<path opacity="0.4" d="M11.6317 27.7069C11.6317 30.1839 12.168 32.5333 13.1383 34.6527C9.53774 35.0358 5.78393 34.2697 3.02603 32.4566C-1.00868 29.7754 -1.00868 25.4087 3.02603 22.7274C5.75839 20.8888 9.61435 20.1482 13.2405 20.5568C12.1935 22.7018 11.6317 25.1278 11.6317 27.7069Z" fill="#292D32"/>
<path d="M25.8596 35.4186C25.6553 35.3931 25.4255 35.3931 25.1957 35.4186C20.497 35.2654 16.7432 31.4094 16.7432 26.6597C16.7432 21.8079 20.6502 17.8753 25.5276 17.8753C30.3795 17.8753 34.3121 21.8079 34.3121 26.6597C34.3121 31.4094 30.5838 35.2654 25.8596 35.4186Z" fill="#292D32"/>
<path d="M17.5599 40.7043C13.704 43.2835 13.704 47.5225 17.5599 50.0761C21.9522 53.0127 29.1534 53.0127 33.5456 50.0761C37.4015 47.4969 37.4015 43.2579 33.5456 40.7043C29.1789 37.7677 21.9777 37.7677 17.5599 40.7043Z" fill="#292D32"/>
</svg>
