<svg width="69" height="61" viewBox="0 0 69 61" fill="none" xmlns="http://www.w3.org/2000/svg">
<path d="M30.3483 43.2767V49.5077C30.3483 54.7871 25.1655 59.0536 18.7843 59.0536C12.4031 59.0536 7.18799 54.7871 7.18799 49.5077V43.2767C7.18799 48.5561 12.3707 52.3008 18.7843 52.3008C25.1655 52.3008 30.3483 48.5254 30.3483 43.2767Z" stroke="#292D32" stroke-width="3" stroke-linecap="round" stroke-linejoin="round"/>
<path d="M30.3435 34.8345C30.3435 36.3693 29.89 37.7812 29.1126 39.009C27.2013 41.9863 23.2819 43.8587 18.747 43.8587C14.2121 43.8587 10.2927 41.9556 8.38158 39.009C7.60417 37.7812 7.15088 36.3693 7.15088 34.8345C7.15088 32.1948 8.44649 29.8314 10.5196 28.1125C12.625 26.3629 15.5078 25.3193 18.7146 25.3193C21.9214 25.3193 24.8043 26.3936 26.9098 28.1125C29.0478 29.8007 30.3435 32.1948 30.3435 34.8345Z" stroke="#292D32" stroke-width="3" stroke-linecap="round" stroke-linejoin="round"/>
<path d="M30.3483 34.8345V43.2755C30.3483 48.5549 25.1655 52.2996 18.7843 52.2996C12.4031 52.2996 7.18799 48.5242 7.18799 43.2755V34.8345C7.18799 29.5551 12.3707 25.2886 18.7843 25.2886C21.9911 25.2886 24.8741 26.3629 26.9796 28.0818C29.0526 29.8007 30.3483 32.1948 30.3483 34.8345Z" stroke="#292D32" stroke-width="3" stroke-linecap="round" stroke-linejoin="round"/>
<path d="M66.7836 25.1962V31.5196C66.7836 33.2078 65.3584 34.5887 63.5444 34.6501H57.1953C53.697 34.6501 50.4905 32.2252 50.199 28.9103C50.0046 26.9765 50.7817 25.1656 52.1422 23.9071C53.3407 22.7407 54.993 22.0656 56.8069 22.0656H63.5444C65.3584 22.127 66.7836 23.5081 66.7836 25.1962Z" stroke="#292D32" stroke-width="3" stroke-linecap="round" stroke-linejoin="round"/>
<path d="M2 23.7539V17.615C2 9.26619 7.31226 3.43427 15.5722 2.45205C16.4144 2.32927 17.289 2.26788 18.1959 2.26788H47.3486C48.1908 2.26788 49.0006 2.29855 49.778 2.42132C58.1351 3.34215 63.5445 9.2048 63.5445 17.615V22.0658H56.807C54.9931 22.0658 53.3411 22.741 52.1426 23.9074C50.7821 25.1658 50.0047 26.9768 50.1991 28.9106C50.4906 32.2255 53.6974 34.6504 57.1957 34.6504H63.5445V39.1011C63.5445 48.3094 57.0662 54.4482 47.3486 54.4482H39.2506" stroke="#292D32" stroke-width="3" stroke-linecap="round" stroke-linejoin="round"/>
</svg>
