<svg width="58" height="74" viewBox="0 0 58 74" fill="none" xmlns="http://www.w3.org/2000/svg">
<path d="M2 33.4648V50.802C2 57.1508 2 57.1508 8 61.1974L24.5 70.7206C26.9767 72.1509 31.0232 72.1509 33.5 70.7206L50 61.1974C56 57.1508 56 57.1508 56 50.802V33.4648C56 27.1161 56 27.1161 50 23.0696L33.5 13.5463C31.0232 12.1161 26.9767 12.1161 24.5 13.5463L8 23.0696C2 27.1161 2 27.1161 2 33.4648Z" stroke="#292D32" stroke-width="3" stroke-linecap="round" stroke-linejoin="round"/>
<path d="M48.1861 21.6395V12.4651C48.1861 5.48837 44.6977 2 37.721 2H20.2791C13.3023 2 9.81396 5.48837 9.81396 12.4651V21.3954" stroke="#292D32" stroke-width="3" stroke-linecap="round" stroke-linejoin="round"/>
<path d="M31.1977 33.3605L33.1861 36.4651C33.5001 36.9535 34.1977 37.4419 34.721 37.5814L38.2791 38.4884C40.4768 39.0465 41.0698 40.9303 39.6396 42.6744L37.3024 45.5C36.9535 45.9535 36.6745 46.7558 36.7094 47.314L36.9187 50.9768C37.0582 53.2442 35.4535 54.3954 33.3605 53.5582L29.9419 52.1977C29.4187 51.9884 28.5466 51.9884 28.0233 52.1977L24.6047 53.5582C22.5117 54.3954 20.9071 53.2093 21.0466 50.9768L21.2559 47.314C21.2908 46.7558 21.0117 45.9186 20.6629 45.5L18.3257 42.6744C16.8955 40.9303 17.4885 39.0465 19.6862 38.4884L23.2442 37.5814C23.8024 37.4419 24.5001 36.9186 24.7791 36.4651L26.7675 33.3605C28.0233 31.4768 29.9768 31.4768 31.1977 33.3605Z" stroke="#292D32" stroke-width="3" stroke-linecap="round" stroke-linejoin="round"/>
</svg>
