<svg width="51" height="53" viewBox="0 0 51 53" fill="none" xmlns="http://www.w3.org/2000/svg">
<path opacity="0.4" d="M39.6705 14.7343C39.4917 14.7088 39.3129 14.7088 39.1342 14.7343C35.1761 14.6067 32.0352 11.3636 32.0352 7.37994C32.0352 3.31969 35.3293 0 39.4151 0C43.4753 0 46.795 3.29416 46.795 7.37994C46.7695 11.3636 43.6286 14.6067 39.6705 14.7343Z" fill="#292D32"/>
<path opacity="0.4" d="M47.9965 32.4303C45.1365 34.3455 41.1273 35.0605 37.4246 34.5753C38.3949 32.4814 38.9056 30.1576 38.9312 27.7061C38.9312 25.1525 38.3694 22.7266 37.2969 20.6071C41.0762 20.0964 45.0854 20.8114 47.971 22.7266C52.0057 25.3823 52.0057 29.749 47.9965 32.4303Z" fill="#292D32"/>
<path opacity="0.4" d="M11.3541 14.7343C11.5328 14.7088 11.7116 14.7088 11.8903 14.7343C15.8484 14.6067 18.9894 11.3636 18.9894 7.37994C18.9894 3.31969 15.6952 0 11.6094 0C7.54919 0 4.22949 3.29416 4.22949 7.37994C4.25503 11.3636 7.39597 14.6067 11.3541 14.7343Z" fill="#292D32"/>
<path opacity="0.4" d="M11.6317 27.7066C11.6317 30.1836 12.168 32.5329 13.1383 34.6524C9.53774 35.0355 5.78393 34.2694 3.02603 32.4563C-1.00868 29.775 -1.00868 25.4084 3.02603 22.7271C5.75839 20.8885 9.61435 20.1479 13.2405 20.5565C12.1935 22.7015 11.6317 25.1275 11.6317 27.7066Z" fill="#292D32"/>
<path d="M25.8596 35.4183C25.6553 35.3928 25.4255 35.3928 25.1957 35.4183C20.497 35.2651 16.7432 31.4091 16.7432 26.6594C16.7432 21.8076 20.6502 17.875 25.5276 17.875C30.3795 17.875 34.3121 21.8076 34.3121 26.6594C34.3121 31.4091 30.5838 35.2651 25.8596 35.4183Z" fill="#292D32"/>
<path d="M17.5599 40.7044C13.704 43.2836 13.704 47.5226 17.5599 50.0762C21.9522 53.0128 29.1534 53.0128 33.5456 50.0762C37.4015 47.497 37.4015 43.2581 33.5456 40.7044C29.1789 37.7678 21.9777 37.7678 17.5599 40.7044Z" fill="#292D32"/>
</svg>
