<svg width="44" height="56" viewBox="0 0 44 56" fill="none" xmlns="http://www.w3.org/2000/svg">
<path d="M2 25.3068V38.1492C2 42.852 2 42.852 6.44445 45.8495L18.6667 52.9037C20.5013 53.9632 23.4987 53.9632 25.3333 52.9037L37.5556 45.8495C42 42.852 42 42.852 42 38.1492V25.3068C42 20.6041 42 20.6041 37.5556 17.6067L25.3333 10.5524C23.4987 9.49295 20.5013 9.49295 18.6667 10.5524L6.44445 17.6067C2 20.6041 2 20.6041 2 25.3068Z" stroke="#292D32" stroke-width="3" stroke-linecap="round" stroke-linejoin="round"/>
<path d="M36.2119 16.5478V9.75194C36.2119 4.58398 33.6279 2 28.4599 2H15.54C10.3721 2 7.78809 4.58398 7.78809 9.75194V16.3669" stroke="#292D32" stroke-width="3" stroke-linecap="round" stroke-linejoin="round"/>
<path d="M23.6276 25.2301L25.1005 27.5298C25.3331 27.8916 25.8498 28.2534 26.2374 28.3567L28.8731 29.0286C30.501 29.442 30.9403 30.8373 29.8809 32.1293L28.1496 34.2224C27.8912 34.5583 27.6845 35.1526 27.7103 35.566L27.8654 38.2792C27.9687 39.9588 26.7801 40.8115 25.2297 40.1914L22.6974 39.1836C22.3098 39.0286 21.6638 39.0286 21.2762 39.1836L18.7439 40.1914C17.1935 40.8115 16.0049 39.933 16.1083 38.2792L16.2633 35.566C16.2892 35.1526 16.0825 34.5324 15.8241 34.2224L14.0928 32.1293C13.0334 30.8373 13.4726 29.442 15.1005 29.0286L17.7361 28.3567C18.1496 28.2534 18.6664 27.8658 18.8731 27.5298L20.346 25.2301C21.2762 23.8348 22.7232 23.8348 23.6276 25.2301Z" stroke="#292D32" stroke-width="3" stroke-linecap="round" stroke-linejoin="round"/>
</svg>
