<svg width="44" height="56" viewBox="0 0 44 56" fill="none" xmlns="http://www.w3.org/2000/svg">
<path d="M2 25.3072V38.1496C2 42.8525 2 42.8525 6.44445 45.8499L18.6667 52.9042C20.5013 53.9636 23.4987 53.9636 25.3333 52.9042L37.5556 45.8499C42 42.8525 42 42.8525 42 38.1496V25.3072C42 20.6045 42 20.6045 37.5556 17.6071L25.3333 10.5528C23.4987 9.49338 20.5013 9.49338 18.6667 10.5528L6.44445 17.6071C2 20.6045 2 20.6045 2 25.3072Z" stroke="#292D32" stroke-width="3" stroke-linecap="round" stroke-linejoin="round"/>
<path d="M36.2119 16.5478V9.75194C36.2119 4.58398 33.6279 2 28.4599 2H15.54C10.3721 2 7.78809 4.58398 7.78809 9.75194V16.3669" stroke="#292D32" stroke-width="3" stroke-linecap="round" stroke-linejoin="round"/>
<path d="M23.6276 25.23L25.1005 27.5297C25.3331 27.8915 25.8498 28.2532 26.2374 28.3566L28.8731 29.0284C30.501 29.4419 30.9403 30.8372 29.8809 32.1292L28.1496 34.2222C27.8912 34.5582 27.6845 35.1525 27.7103 35.5659L27.8654 38.2791C27.9687 39.9587 26.7801 40.8114 25.2297 40.1912L22.6974 39.1835C22.3098 39.0284 21.6638 39.0284 21.2762 39.1835L18.7439 40.1912C17.1935 40.8114 16.0049 39.9328 16.1083 38.2791L16.2633 35.5659C16.2892 35.1525 16.0825 34.5323 15.8241 34.2222L14.0928 32.1292C13.0334 30.8372 13.4726 29.4419 15.1005 29.0284L17.7361 28.3566C18.1496 28.2532 18.6664 27.8656 18.8731 27.5297L20.346 25.23C21.2762 23.8346 22.7232 23.8346 23.6276 25.23Z" stroke="#292D32" stroke-width="3" stroke-linecap="round" stroke-linejoin="round"/>
</svg>
