<svg width="48" height="48" viewBox="0 0 48 48" fill="none" xmlns="http://www.w3.org/2000/svg">
<path d="M36.413 37.3284H11.587C2.7014 37.3284 0 34.627 0 25.7414V11.587C0 2.7014 2.7014 0 11.587 0H36.3907C45.2763 0 47.9777 2.7014 47.9777 11.587V25.7191C48 34.627 45.2986 37.3284 36.413 37.3284ZM11.587 3.34884C4.57674 3.34884 3.34884 4.57674 3.34884 11.587V25.7191C3.34884 32.7293 4.57674 33.9572 11.587 33.9572H36.3907C43.4009 33.9572 44.6288 32.7293 44.6288 25.7191V11.587C44.6288 4.57674 43.4009 3.34884 36.3907 3.34884H11.587Z" fill="#292D32"/>
<path d="M23.9996 48C23.0843 48 22.3252 47.2409 22.3252 46.3256V35.654C22.3252 34.7386 23.0843 33.9796 23.9996 33.9796C24.915 33.9796 25.674 34.7386 25.674 35.654V46.3256C25.674 47.2409 24.915 48 23.9996 48Z" fill="#292D32"/>
<path d="M46.3256 27.907H1.67442C0.75907 27.907 0 27.1479 0 26.2326C0 25.3172 0.75907 24.5582 1.67442 24.5582H46.3256C47.2409 24.5582 48 25.3172 48 26.2326C48 27.1479 47.2409 27.907 46.3256 27.907Z" fill="#292D32"/>
<path d="M34.0467 48H13.9537C13.0384 48 12.2793 47.241 12.2793 46.3256C12.2793 45.4103 13.0384 44.6512 13.9537 44.6512H34.0467C34.9621 44.6512 35.7212 45.4103 35.7212 46.3256C35.7212 47.241 34.9621 48 34.0467 48Z" fill="#292D32"/>
</svg>
