<svg width="69" height="61" viewBox="0 0 69 61" fill="none" xmlns="http://www.w3.org/2000/svg">
<path d="M30.3478 43.2773V49.5083C30.3478 54.7877 25.165 59.0542 18.7838 59.0542C12.4027 59.0542 7.1875 54.7877 7.1875 49.5083V43.2773C7.1875 48.5568 12.3703 52.3015 18.7838 52.3015C25.165 52.3015 30.3478 48.5261 30.3478 43.2773Z" stroke="#292D32" stroke-width="3" stroke-linecap="round" stroke-linejoin="round"/>
<path d="M30.344 34.8336C30.344 36.3683 29.8905 37.7803 29.1131 39.008C27.2018 41.9854 23.2823 43.8577 18.7475 43.8577C14.2126 43.8577 10.2932 41.9547 8.38206 39.008C7.60466 37.7803 7.15137 36.3683 7.15137 34.8336C7.15137 32.1939 8.44698 29.8304 10.5201 28.1115C12.6255 26.362 15.5083 25.3184 18.7151 25.3184C21.9219 25.3184 24.8048 26.3927 26.9103 28.1115C29.0483 29.7997 30.344 32.1939 30.344 34.8336Z" stroke="#292D32" stroke-width="3" stroke-linecap="round" stroke-linejoin="round"/>
<path d="M30.3478 34.835V43.2759C30.3478 48.5554 25.165 52.3001 18.7838 52.3001C12.4027 52.3001 7.1875 48.5247 7.1875 43.2759V34.835C7.1875 29.5556 12.3703 25.2891 18.7838 25.2891C21.9906 25.2891 24.8736 26.3634 26.9791 28.0822C29.0521 29.8011 30.3478 32.1953 30.3478 34.835Z" stroke="#292D32" stroke-width="3" stroke-linecap="round" stroke-linejoin="round"/>
<path d="M66.7831 25.1951V31.5185C66.7831 33.2066 65.3579 34.5876 63.544 34.649H57.1948C53.6965 34.649 50.49 32.2241 50.1985 28.9091C50.0042 26.9754 50.7812 25.1644 52.1417 23.906C53.3402 22.7396 54.9925 22.0645 56.8064 22.0645H63.544C65.3579 22.1258 66.7831 23.5069 66.7831 25.1951Z" stroke="#292D32" stroke-width="3" stroke-linecap="round" stroke-linejoin="round"/>
<path d="M2 23.7536V17.6147C2 9.26588 7.31226 3.43396 15.5722 2.45174C16.4144 2.32897 17.289 2.26758 18.1959 2.26758H47.3486C48.1908 2.26758 49.0006 2.29824 49.778 2.42102C58.1351 3.34185 63.5445 9.20449 63.5445 17.6147V22.0654H56.807C54.9931 22.0654 53.3411 22.7407 52.1426 23.9071C50.7821 25.1655 50.0047 26.9765 50.1991 28.9102C50.4906 32.2252 53.6974 34.6501 57.1957 34.6501H63.5445V39.1008C63.5445 48.3091 57.0662 54.4479 47.3486 54.4479H39.2506" stroke="#292D32" stroke-width="3" stroke-linecap="round" stroke-linejoin="round"/>
</svg>
