<svg width="49" height="49" viewBox="0 0 49 49" fill="none" xmlns="http://www.w3.org/2000/svg">
<path d="M47 35.9308V6.83885C47 3.94652 44.795 1.80137 42.1175 2.0424H41.9825C37.2575 2.47625 30.08 5.05525 26.075 7.75476L25.6925 8.01989C25.04 8.45374 23.96 8.45374 23.3075 8.01989L22.745 7.65835C18.74 4.98294 11.585 2.42804 6.86 2.0183C4.1825 1.77727 2 3.94652 2 6.81475V35.9308C2 38.2447 3.755 40.4139 5.915 40.7031L6.5675 40.7996C11.45 41.4985 18.9875 44.1498 23.3075 46.6806L23.3975 46.7288C24.005 47.0904 24.9725 47.0904 25.5575 46.7288C29.8775 44.1739 37.4375 41.4985 42.3425 40.7996L43.085 40.7031C45.245 40.4139 47 38.2447 47 35.9308Z" stroke="#292D32" stroke-width="3" stroke-linecap="round" stroke-linejoin="round"/>
<path d="M24.5 8.81543V44.9696" stroke="#292D32" stroke-width="3" stroke-linecap="round" stroke-linejoin="round"/>
<path d="M14.9375 16.0462H9.875" stroke="#292D32" stroke-width="3" stroke-linecap="round" stroke-linejoin="round"/>
<path d="M16.625 23.2771H9.875" stroke="#292D32" stroke-width="3" stroke-linecap="round" stroke-linejoin="round"/>
</svg>
