<svg width="56" height="53" viewBox="0 0 56 53" fill="none" xmlns="http://www.w3.org/2000/svg">
<path d="M54.7574 23.1619L50.9492 18.9759C50.2211 18.1811 49.6331 16.6974 49.6331 15.6377V11.1338C49.6331 8.32554 47.1969 6.02062 44.2288 6.02062H39.4685C38.3764 6.02062 36.7803 5.46426 35.9403 4.77543L31.516 1.17233C29.5839 -0.390777 26.4197 -0.390777 24.4596 1.17233L20.0632 4.80192C19.2232 5.46426 17.6271 6.02062 16.535 6.02062H11.6907C8.72252 6.02062 6.28638 8.32554 6.28638 11.1338V15.6642C6.28638 16.6974 5.69834 18.1811 4.9983 18.9759L1.21807 23.1883C-0.406024 25.0164 -0.406024 27.9836 1.21807 29.8117L4.9983 34.0241C5.69834 34.8189 6.28638 36.3026 6.28638 37.3358V41.8662C6.28638 44.6745 8.72252 46.9794 11.6907 46.9794H16.535C17.6271 46.9794 19.2232 47.5358 20.0632 48.2246L24.4876 51.8277C26.4197 53.3908 29.5839 53.3908 31.544 51.8277L35.9683 48.2246C36.8083 47.5358 38.3764 46.9794 39.4965 46.9794H44.2568C47.2249 46.9794 49.6611 44.6745 49.6611 41.8662V37.3623C49.6611 36.3291 50.2491 34.8189 50.9772 34.0241L54.7854 29.8382C56.4095 28.0101 56.4095 24.9899 54.7574 23.1619ZM39.6365 21.4928L26.1117 34.2891C25.7197 34.66 25.1876 34.8719 24.6276 34.8719C24.0676 34.8719 23.5355 34.66 23.1435 34.2891L16.367 27.8777C15.5549 27.1094 15.5549 25.8377 16.367 25.0694C17.179 24.3011 18.5231 24.3011 19.3352 25.0694L24.6276 30.0766L36.6683 18.6844C37.4804 17.9161 38.8244 17.9161 39.6365 18.6844C40.4485 19.4528 40.4485 20.7244 39.6365 21.4928Z" fill="#1E1E1E"/>
</svg>
