<svg width="47" height="47" viewBox="0 0 47 47" fill="none" xmlns="http://www.w3.org/2000/svg">
<path d="M34.4302 47H12.5698C2.9293 47 0 44.0707 0 34.4302V12.5698C0 2.9293 2.9293 0 12.5698 0H15.8488C19.6744 0 20.8767 1.24605 22.407 3.27907L25.686 7.65116C26.4074 8.61302 26.5167 8.74419 27.8721 8.74419H34.4302C44.0707 8.74419 47 11.6735 47 21.314V34.4302C47 44.0707 44.0707 47 34.4302 47ZM12.5698 3.27907C4.76558 3.27907 3.27907 4.76558 3.27907 12.5698V34.4302C3.27907 42.2344 4.76558 43.7209 12.5698 43.7209H34.4302C42.2344 43.7209 43.7209 42.2344 43.7209 34.4302V21.314C43.7209 13.5098 42.2344 12.0233 34.4302 12.0233H27.8721C25.074 12.0233 24.1558 11.0614 23.0628 9.61861L19.7837 5.24651C18.647 3.73814 18.3191 3.27907 15.8488 3.27907H12.5698Z" fill="#292D32"/>
</svg>
