<svg width="45" height="45" viewBox="0 0 45 45" fill="none" xmlns="http://www.w3.org/2000/svg">
<path d="M44.0015 19.6657L40.9413 16.1116C40.3563 15.4368 39.8837 14.1771 39.8837 13.2773V9.45326C39.8837 7.06885 37.9261 5.11184 35.541 5.11184H31.7157C30.8382 5.11184 29.5556 4.63946 28.8806 4.05461L25.3254 0.995376C23.7728 -0.331792 21.2301 -0.331792 19.655 0.995376L16.1222 4.0771C15.4472 4.63946 14.1646 5.11184 13.287 5.11184H9.39431C7.00917 5.11184 5.05155 7.06885 5.05155 9.45326V13.2998C5.05155 14.1771 4.57902 15.4368 4.01649 16.1116L0.978809 19.6882C-0.32627 21.2403 -0.32627 23.7597 0.978809 25.3118L4.01649 28.8884C4.57902 29.5632 5.05155 30.8229 5.05155 31.7002V35.5467C5.05155 37.9311 7.00917 39.8882 9.39431 39.8882H13.287C14.1646 39.8882 15.4472 40.3605 16.1222 40.9454L19.6775 44.0046C21.2301 45.3318 23.7728 45.3318 25.3479 44.0046L28.9031 40.9454C29.5781 40.3605 30.8382 39.8882 31.7382 39.8882H35.5635C37.9486 39.8882 39.9062 37.9311 39.9062 35.5467V31.7227C39.9062 30.8454 40.3788 29.5632 40.9638 28.8884L44.024 25.3343C45.3291 23.7822 45.3291 21.2178 44.0015 19.6657ZM31.8508 18.2486L20.9826 29.1134C20.6676 29.4283 20.2401 29.6082 19.79 29.6082C19.34 29.6082 18.9125 29.4283 18.5975 29.1134L13.152 23.6697C12.4995 23.0174 12.4995 21.9377 13.152 21.2853C13.8046 20.633 14.8846 20.633 15.5372 21.2853L19.79 25.5368L29.4656 15.8642C30.1181 15.2118 31.1982 15.2118 31.8508 15.8642C32.5033 16.5165 32.5033 17.5962 31.8508 18.2486Z" fill="#1E1E1E"/>
</svg>
