<svg width="37" height="38" viewBox="0 0 37 38" fill="none" xmlns="http://www.w3.org/2000/svg">
<path d="M27.931 37.069C25.9828 37.069 23.931 36.6034 21.8103 35.7069C19.7414 34.8276 17.6552 33.6207 15.6207 32.1552C13.6034 30.6724 11.6552 29.0172 9.81035 27.2069C7.98276 25.3621 6.32759 23.4138 4.86207 21.4138C3.37931 19.3448 2.18966 17.2759 1.34483 15.2759C0.448276 13.1379 0 11.069 0 9.12069C0 7.77586 0.241379 6.5 0.706897 5.31034C1.18966 4.08621 1.96552 2.94828 3.01724 1.96552C4.34483 0.655173 5.86207 0 7.48276 0C8.15517 0 8.84483 0.155172 9.43104 0.431034C10.1034 0.741379 10.6724 1.2069 11.0862 1.82759L15.0862 7.46552C15.4483 7.96552 15.7241 8.44828 15.9138 8.93103C16.1379 9.44828 16.2586 9.96552 16.2586 10.4655C16.2586 11.1207 16.069 11.7586 15.7069 12.3621C15.4483 12.8276 15.0517 13.3276 14.5517 13.8276L13.3793 15.0517C13.3966 15.1034 13.4138 15.1379 13.431 15.1724C13.6379 15.5345 14.0517 16.1552 14.8448 17.0862C15.6897 18.0517 16.4828 18.931 17.2759 19.7414C18.2931 20.7414 19.1379 21.5345 19.931 22.1897C20.9138 23.0172 21.5517 23.431 21.931 23.6207L21.8966 23.7069L23.1552 22.4655C23.6897 21.931 24.2069 21.5345 24.7069 21.2759C25.6552 20.6897 26.8621 20.5862 28.069 21.0862C28.5172 21.2759 29 21.5345 29.5172 21.8966L35.2414 25.9655C35.8793 26.3966 36.3448 26.9483 36.6207 27.6034C36.8793 28.2586 37 28.8621 37 29.4655C37 30.2931 36.8103 31.1207 36.4483 31.8966C36.0862 32.6724 35.6379 33.3448 35.069 33.9655C34.0862 35.0517 33.0172 35.8276 31.7759 36.3276C30.5862 36.8103 29.2931 37.069 27.931 37.069ZM7.48276 2.58621C6.53448 2.58621 5.65517 3 4.81035 3.82759C4.01724 4.56897 3.46552 5.37931 3.12069 6.25862C2.75862 7.15517 2.58621 8.10345 2.58621 9.12069C2.58621 10.7241 2.96552 12.4655 3.72414 14.2586C4.5 16.0862 5.58621 17.9828 6.96552 19.8793C8.34483 21.7759 9.91379 23.6207 11.6379 25.3621C13.3621 27.069 15.2241 28.6552 17.1379 30.0517C19 31.4138 20.9138 32.5172 22.8103 33.3103C25.7586 34.569 28.5172 34.8621 30.7931 33.9138C31.6724 33.5517 32.4483 33 33.1552 32.2069C33.5517 31.7759 33.8621 31.3103 34.1207 30.7586C34.3276 30.3276 34.431 29.8793 34.431 29.431C34.431 29.1552 34.3793 28.8793 34.2414 28.569C34.1897 28.4655 34.0862 28.2759 33.7586 28.0517L28.0345 23.9828C27.6897 23.7414 27.3793 23.569 27.0862 23.4483C26.7069 23.2931 26.5517 23.1379 25.9655 23.5C25.6207 23.6724 25.3103 23.931 24.9655 24.2759L23.6552 25.569C22.9828 26.2241 21.9483 26.3793 21.1552 26.0862L20.6897 25.8793C19.9828 25.5 19.1552 24.9138 18.2414 24.1379C17.4138 23.431 16.5172 22.6034 15.431 21.5345C14.5862 20.6724 13.7414 19.7586 12.8621 18.7414C12.0517 17.7931 11.4655 16.9828 11.1034 16.3103L10.8966 15.7931C10.7931 15.3966 10.7586 15.1724 10.7586 14.931C10.7586 14.3103 10.9828 13.7586 11.4138 13.3276L12.7069 11.9828C13.0517 11.6379 13.3103 11.3103 13.4828 11.0172C13.6207 10.7931 13.6724 10.6034 13.6724 10.431C13.6724 10.2931 13.6207 10.0862 13.5345 9.87931C13.4138 9.60345 13.2241 9.2931 12.9828 8.96552L8.98276 3.31034C8.81035 3.06897 8.60345 2.89655 8.34483 2.77586C8.06897 2.65517 7.77586 2.58621 7.48276 2.58621ZM21.8966 23.7241L21.6207 24.8966L22.0862 23.6897C22 23.6724 21.931 23.6897 21.8966 23.7241Z" fill="#292D32"/>
</svg>
